# xmcd
#
# Track frame offsets: 
#        150
#        13791
#        30683
#        48299
#        60668
#        75052
#        88999
#        103702
#        116121
#        129301
#        146127
#        160414
#
# Disc length: 2294 seconds
#
# Revision: 1
# Processed by: cddbd v1.5.2PL0 Copyright (c) Steve Scherf et al.
# Submitted via: ExactAudioCopy v0.99pb4
#
DISCID=9b08f40c
DTITLE=Billy Keeble - Keeping It Country
DYEAR=2001
DGENRE=Country
TTITLE0=Guess Who Doesn't Love Me Anymore
TTITLE1=After You Have Gone
TTITLE2=You Can't Take It With You
TTITLE3=No Good Times
TTITLE4=You Don't Care What Happens To Me
TTITLE5=Five Dollar Whiskey
TTITLE6=If I had One Wish To Burn
TTITLE7=What A Heartache
TTITLE8=In Case You Change Your Mind
TTITLE9=Fallin' Back In Love
TTITLE10=Heavy Construction
TTITLE11=Jukebox Hero w/ Curt Ryle
EXTD=
EXTT0=
EXTT1=
EXTT2=
EXTT3=
EXTT4=
EXTT5=
EXTT6=
EXTT7=
EXTT8=
EXTT9=
EXTT10=
EXTT11=
PLAYORDER=
